<svg xmlns="http://www.w3.org/2000/svg" viewBox="0 0 192 192"><defs><style>.d,.e,.f{fill:none;}.d{stroke-width:5px;}.e{stroke-miterlimit:10;stroke-width:8px;}.f{stroke-width:4px;}</style></defs><title>graph</title><polyline class="d" points="41.14 35 42.26 38.92 43.38 42.76 44.49 46.51 45.62 50.19 46.73 53.79 47.85 57.3 48.97 60.73 50.09 64.09 51.21 67.36 52.33 70.55 53.45 73.66 54.57 76.69 55.69 79.64 56.81 82.51 57.93 85.3 59.05 88 60.17 90.63 61.29 93.18 62.41 95.64 63.53 98.02 64.65 100.33 65.77 102.55 66.89 104.69 68.01 106.75 69.13 108.73 70.25 110.63 71.37 112.45 72.49 114.18 73.61 115.84 74.73 117.42 75.85 118.91 76.97 120.32 78.08 121.66 79.2 122.91 80.33 124.08 81.44 125.17 82.56 126.18 83.68 127.11 84.8 127.96 85.92 128.73 87.04 129.41 88.16 130.02 89.28 130.55 90.4 130.99 91.52 131.35 92.64 131.64 93.76 131.84 94.88 131.96 96 132 97.12 131.96 98.24 131.84 99.36 131.64 100.48 131.35 101.6 130.99 102.72 130.55 103.84 130.02 104.96 129.41 106.08 128.73 107.2 127.96 108.32 127.11 109.44 126.18 110.56 125.17 111.67 124.08 112.8 122.91 113.92 121.66 115.03 120.32 116.15 118.91 117.27 117.42 118.39 115.84 119.51 114.18 120.63 112.45 121.75 110.63 122.87 108.73 123.99 106.75 125.11 104.69 126.23 102.55 127.35 100.33 128.47 98.02 129.59 95.64 130.71 93.18 131.83 90.63 132.95 88 134.07 85.3 135.19 82.51 136.31 79.64 137.43 76.69 138.55 73.66 139.67 70.55 140.79 67.36 141.91 64.09 143.03 60.73 144.15 57.3 145.26 53.79 146.38 50.19 147.5 46.51 148.62 42.76 149.74 38.92 150.86 35"/><rect class="e" x="24" y="36" width="144" height="120" rx="10" ry="10"/><line class="f" x1="24" y1="132" x2="168" y2="132"/><line class="f" x1="96" y1="34" x2="96" y2="158"/></svg>