<?xml version="1.0" encoding="utf-8"?>
<!-- Generator: Adobe Illustrator 22.1.0, SVG Export Plug-In . SVG Version: 6.00 Build 0)  -->
<svg version="1.1" xmlns="http://www.w3.org/2000/svg" xmlns:xlink="http://www.w3.org/1999/xlink" x="0px" y="0px"
	 viewBox="0 0 2520 792" style="enable-background:new 0 0 2520 792;" xml:space="preserve">
<style type="text/css">
	.st0{fill:#E24444;}
	.st1{fill:#722424;}
	.st2{display:none;}
	.st3{display:inline;fill:none;stroke:#000000;stroke-width:3;stroke-miterlimit:10;}
	.st4{opacity:0.97;}
	.st5{opacity:0.97;clip-path:url(#SVGID_2_);}
	.st6{opacity:0.97;clip-path:url(#SVGID_4_);}
</style>
<g id="Layer_1">
	<g>
		<circle class="st0" cx="355.5" cy="382.5" r="202.5"/>
	</g>
	<g>
		<rect x="271.1" y="363" class="st1" width="168.8" height="38.9"/>
		<rect x="271.1" y="363" transform="matrix(-1.836970e-16 1 -1 -1.836970e-16 738 27)" class="st1" width="168.8" height="38.9"/>
	</g>
</g>
<g id="Layer_2" class="st2">
	<line class="st3" x1="585" y1="288" x2="2151" y2="288"/>
	<line class="st3" x1="576" y1="576" x2="2142" y2="576"/>
	<line class="st3" x1="576" y1="144" x2="2142" y2="144"/>
</g>
<g id="Layer_3">
	<g class="st4">
		<path d="M801,324c28.8,0,56,11.2,76.4,31.6C897.8,376,909,403.2,909,432s-11.2,56-31.6,76.4C857,528.8,829.8,540,801,540
			s-56-11.2-76.4-31.6C704.2,488,693,460.8,693,432s11.2-56,31.6-76.4C745,335.2,772.2,324,801,324 M801,279
			c-84.5,0-153,68.5-153,153s68.5,153,153,153s153-68.5,153-153S885.5,279,801,279L801,279z"/>
	</g>
	<g class="st4">
		<path d="M1350,324c28.8,0,56,11.2,76.4,31.6c20.4,20.4,31.6,47.5,31.6,76.4s-11.2,56-31.6,76.4c-20.4,20.4-47.5,31.6-76.4,31.6
			s-56-11.2-76.4-31.6c-20.4-20.4-31.6-47.5-31.6-76.4s11.2-56,31.6-76.4C1294,335.2,1321.2,324,1350,324 M1350,279
			c-84.5,0-153,68.5-153,153s68.5,153,153,153s153-68.5,153-153S1434.5,279,1350,279L1350,279z"/>
	</g>
	<g class="st4">
		<path d="M1872,324c28.8,0,56,11.2,76.4,31.6c20.4,20.4,31.6,47.5,31.6,76.4s-11.2,56-31.6,76.4c-20.4,20.4-47.5,31.6-76.4,31.6
			s-56-11.2-76.4-31.6c-20.4-20.4-31.6-47.5-31.6-76.4s11.2-56,31.6-76.4C1816,335.2,1843.2,324,1872,324 M1872,279
			c-84.5,0-153,68.5-153,153s68.5,153,153,153s153-68.5,153-153S1956.5,279,1872,279L1872,279z"/>
	</g>
	<rect x="648" y="432" width="45" height="288"/>
	<g>
		<defs>
			<rect id="SVGID_1_" x="972" y="243" width="171" height="198"/>
		</defs>
		<clipPath id="SVGID_2_">
			<use xlink:href="#SVGID_1_"  style="overflow:visible;"/>
		</clipPath>
		<g class="st5">
			<path d="M1143,324c28.8,0,56,11.2,76.4,31.6c20.4,20.4,31.6,47.5,31.6,76.4s-11.2,56-31.6,76.4c-20.4,20.4-47.5,31.6-76.4,31.6
				s-56-11.2-76.4-31.6c-20.4-20.4-31.6-47.5-31.6-76.4s11.2-56,31.6-76.4C1087,335.2,1114.2,324,1143,324 M1143,279
				c-84.5,0-153,68.5-153,153s68.5,153,153,153s153-68.5,153-153S1227.5,279,1143,279L1143,279z"/>
		</g>
	</g>
	<rect x="1143" y="279" width="36" height="45"/>
	<rect x="990" y="432" width="45" height="144"/>
	<rect x="1530" y="288" width="171" height="45"/>
	<rect x="1593" y="189" width="45" height="387"/>
	<g>
		<defs>
			<rect id="SVGID_3_" x="2034" y="270" width="522" height="162"/>
		</defs>
		<clipPath id="SVGID_4_">
			<use xlink:href="#SVGID_3_"  style="overflow:visible;"/>
		</clipPath>
		<g class="st6">
			<path d="M2214,324c28.8,0,56,11.2,76.4,31.6c20.4,20.4,31.6,47.5,31.6,76.4s-11.2,56-31.6,76.4c-20.4,20.4-47.5,31.6-76.4,31.6
				s-56-11.2-76.4-31.6c-20.4-20.4-31.6-47.5-31.6-76.4s11.2-56,31.6-76.4C2158,335.2,2185.2,324,2214,324 M2214,279
				c-84.5,0-153,68.5-153,153s68.5,153,153,153s153-68.5,153-153S2298.5,279,2214,279L2214,279z"/>
		</g>
	</g>
	<rect x="2061" y="432" width="45" height="144"/>
	<rect x="2322" y="432" width="45" height="144"/>
</g>
</svg>
